<svg width="40" height="23" viewBox="0 0 40 23" fill="none" xmlns="http://www.w3.org/2000/svg">
<path d="M36.3821 10.297C37.529 10.6174 38.4145 11.174 39.0386 11.9667C39.6795 12.7426 40 13.6956 40 14.8256C40 16.1581 39.6205 17.3977 38.8615 18.5447C38.1025 19.6916 37.023 20.6108 35.6231 21.3023C34.2401 21.977 32.6462 22.3143 30.8415 22.3143C28.6994 22.3143 27.0128 21.8505 25.7815 20.9228C24.5672 19.9952 23.96 18.7049 23.96 17.052C23.96 16.2087 24.1118 15.5846 24.4154 15.1798C24.7358 14.775 25.2165 14.5726 25.8574 14.5726C26.3297 14.5726 26.7008 14.7075 26.9706 14.9774C27.2574 15.2304 27.4007 15.6015 27.4007 16.0906C27.4007 16.9676 27.5103 17.6592 27.7296 18.1652C27.9657 18.6543 28.3368 19.0169 28.8428 19.2531C29.3657 19.4723 30.0909 19.5819 31.0186 19.5819C32.0306 19.5819 32.9329 19.3543 33.7256 18.8989C34.5352 18.4435 35.1593 17.8447 35.5978 17.1026C36.0532 16.3605 36.2809 15.5677 36.2809 14.7244C36.2809 14.016 36.1122 13.4257 35.7749 12.9534C35.4376 12.4643 34.9991 12.1776 34.4593 12.0932C33.1606 12.8354 31.845 13.2064 30.5126 13.2064C29.956 13.2064 29.5596 13.1137 29.3235 12.9281C29.0874 12.7426 28.9693 12.439 28.9693 12.0173C28.9693 11.4102 29.2898 10.9463 29.9307 10.6259C30.5885 10.3054 31.6173 10.1114 33.0172 10.044C34.7376 8.96452 35.5978 7.54774 35.5978 5.79363C35.5978 5.0515 35.387 4.47804 34.9653 4.07325C34.5437 3.65159 33.9112 3.44075 33.0678 3.44075C32.2751 3.44075 31.5752 3.56725 30.968 3.82025C30.3608 4.05638 29.8885 4.38528 29.5512 4.80694C29.2139 5.21173 29.0452 5.65026 29.0452 6.12252C29.0452 6.25745 29.0621 6.43455 29.0958 6.65381C29.1295 6.87308 29.1464 7.04174 29.1464 7.15981C29.1464 7.58147 29.0115 7.90193 28.7416 8.12119C28.4886 8.32359 28.1428 8.42479 27.7043 8.42479C27.0634 8.42479 26.5996 8.19709 26.3128 7.7417C26.0261 7.26944 25.8827 6.64538 25.8827 5.86952C25.8827 4.94187 26.1863 4.09011 26.7935 3.31426C27.4176 2.52153 28.3031 1.89747 29.45 1.44208C30.5969 0.969819 31.9209 0.733688 33.422 0.733688C35.3617 0.733688 36.7785 1.12162 37.6724 1.89747C38.5663 2.67333 39.0133 3.73592 39.0133 5.08523C39.0133 6.09722 38.7856 7.05861 38.3302 7.9694C37.8916 8.86332 37.2423 9.63918 36.3821 10.297Z" fill="#FF5C31"/>
<path d="M25.0467 16.546C25.2659 16.546 25.4346 16.6472 25.5527 16.8496C25.6876 17.052 25.7551 17.3303 25.7551 17.6845C25.7551 18.3423 25.5948 18.8651 25.2744 19.2531C23.6046 21.2939 21.8252 22.3143 19.9361 22.3143C18.3001 22.3143 16.9929 21.6818 16.0147 20.4168C15.0364 19.1519 14.5473 17.3387 14.5473 14.9774C14.5473 14.404 14.5726 13.8305 14.6232 13.257C13.51 13.4594 12.2956 13.6112 10.9801 13.7124C10.103 13.7799 9.50425 13.8221 9.18378 13.8389C8.84645 15.5593 8.37419 17.6676 7.767 20.1638C7.41281 21.6312 6.73815 22.3649 5.74303 22.3649C4.66357 22.3649 4.12385 21.8758 4.12385 20.8975C4.12385 20.6783 4.16601 20.3747 4.25035 19.9867C4.8238 17.676 5.2792 15.7195 5.61653 14.1172L4.40214 14.1678C3.84555 14.1678 3.44076 14.0751 3.18776 13.8895C2.93476 13.6871 2.80826 13.3667 2.80826 12.9281C2.80826 12.3715 2.9685 11.9667 3.28896 11.7137C3.60942 11.4439 4.14071 11.2921 4.88284 11.2584L6.22372 11.2078C6.66225 8.82959 6.88151 7.01644 6.88151 5.76833C6.88151 4.9756 6.76345 4.43588 6.52732 4.14915C6.29119 3.86242 5.97916 3.71905 5.59123 3.71905C4.41058 3.71905 3.07813 4.70574 1.59388 6.67912C1.37462 6.96585 1.13005 7.10921 0.860189 7.10921C0.624059 7.10921 0.421661 6.99958 0.252997 6.78031C0.0843322 6.56105 0 6.28275 0 5.94543C0 5.42257 0.210831 4.86597 0.632492 4.27565C1.37462 3.24679 2.3107 2.40347 3.44076 1.74568C4.57081 1.07102 5.71773 0.73369 6.88151 0.73369C7.97783 0.73369 8.82115 1.11319 9.41148 1.87218C10.0187 2.6143 10.3223 3.77808 10.3223 5.36353C10.3223 6.76345 10.1199 8.66092 9.71508 11.056L12.1944 10.9295C13.257 10.8789 14.1678 10.7945 14.9268 10.6765C15.2304 8.82116 15.6942 7.08391 16.3183 5.46473C16.9423 3.84555 17.7182 2.52997 18.6459 1.51798C19.5735 0.505994 20.6108 0 21.7577 0C22.601 0 23.2673 0.337329 23.7564 1.01199C24.2455 1.66978 24.4901 2.5384 24.4901 3.61785C24.4901 7.80073 22.3565 10.7018 18.0893 12.3209C18.0387 12.9956 18.0134 13.6956 18.0134 14.4208C18.0134 16.1918 18.2326 17.4483 18.6712 18.1905C19.1097 18.9326 19.7253 19.3037 20.518 19.3037C21.2096 19.3037 21.8421 19.1266 22.4155 18.7724C22.989 18.4013 23.6383 17.7772 24.3636 16.9002C24.566 16.6641 24.7937 16.546 25.0467 16.546ZM21.6312 2.20107C21.2602 2.20107 20.8638 2.5384 20.4421 3.21306C20.0373 3.88772 19.6494 4.80694 19.2784 5.97072C18.9073 7.13451 18.6121 8.40793 18.3929 9.79098C19.7422 9.23438 20.7373 8.44166 21.3782 7.41281C22.0192 6.38395 22.3396 5.05993 22.3396 3.44076C22.3396 3.05283 22.2721 2.74923 22.1372 2.52997C22.0023 2.3107 21.8336 2.20107 21.6312 2.20107Z" fill="#FF5C31"/>
</svg>
